<svg width="65" height="23" viewBox="0 0 65 23" fill="none" xmlns="http://www.w3.org/2000/svg">
<rect width="64.4" height="23" rx="3" fill="black" fill-opacity="0.1"/>
<path d="M14.1668 11.767C14.1767 10.9937 14.592 10.262 15.2508 9.85702C14.8352 9.26347 14.1391 8.88715 13.4148 8.86449C12.6424 8.78341 11.8935 9.32671 11.4999 9.32671C11.0987 9.32671 10.4926 8.87254 9.84 8.88596C8.98935 8.91345 8.19632 9.39708 7.78246 10.1408C6.89282 11.6811 7.55641 13.9447 8.40861 15.1898C8.83499 15.7994 9.3333 16.4804 9.98532 16.4563C10.6234 16.4298 10.8617 16.0494 11.6318 16.0494C12.3949 16.0494 12.6185 16.4563 13.2837 16.4409C13.9684 16.4298 14.3997 15.8286 14.8111 15.2131C15.1175 14.7787 15.3532 14.2986 15.5096 13.7906C14.705 13.4503 14.1677 12.6406 14.1668 11.767Z" fill="white"/>
<path d="M12.9102 8.04569C13.2835 7.59755 13.4674 7.02155 13.4229 6.44C12.8526 6.4999 12.3257 6.77248 11.9474 7.20342C11.5774 7.62448 11.3849 8.19034 11.4213 8.74966C11.9918 8.75554 12.5527 8.49035 12.9102 8.04569Z" fill="white"/>
<path d="M19.2602 9.66H20.3504C21.3716 9.66 22.0984 9.0022 22.0984 8.0776C22.0984 7.153 21.3716 6.4998 20.3504 6.4998H19.2602V9.66ZM19.7248 9.2368V6.923H20.378C21.1094 6.923 21.62 7.4014 21.62 8.0776C21.62 8.7584 21.1094 9.2368 20.378 9.2368H19.7248Z" fill="white"/>
<path d="M23.8221 9.7152C24.4983 9.7152 25.0687 9.1448 25.0687 8.4686C25.0687 7.7924 24.4983 7.2266 23.8221 7.2266C23.1413 7.2266 22.5663 7.7924 22.5663 8.4686C22.5663 9.1448 23.1413 9.7152 23.8221 9.7152ZM23.8221 9.3196C23.3851 9.3196 23.0217 8.9332 23.0217 8.4686C23.0217 8.0086 23.3851 7.6222 23.8221 7.6222C24.2499 7.6222 24.6133 8.0086 24.6133 8.4686C24.6133 8.9332 24.2499 9.3196 23.8221 9.3196Z" fill="white"/>
<path d="M26.1053 9.66H26.5239L27.0989 7.8936L27.6693 9.66H28.0879L28.8883 7.2818H28.4237L27.8809 9.0528L27.2921 7.2818H26.9057L26.3169 9.0528L25.7695 7.2818H25.3049L26.1053 9.66Z" fill="white"/>
<path d="M30.5578 7.2266C30.2358 7.2266 29.946 7.3922 29.8034 7.6268V7.2818H29.348V9.66H29.8034V8.119C29.8402 7.8384 30.1254 7.6222 30.4566 7.6222C30.7786 7.6222 31.004 7.8706 31.004 8.2248V9.66H31.4502V8.1466C31.4502 7.6084 31.0822 7.2266 30.5578 7.2266Z" fill="white"/>
<path d="M32.1018 9.66H32.5526V6.4446H32.1018V9.66Z" fill="white"/>
<path d="M34.3428 9.7152C35.019 9.7152 35.5894 9.1448 35.5894 8.4686C35.5894 7.7924 35.019 7.2266 34.3428 7.2266C33.662 7.2266 33.087 7.7924 33.087 8.4686C33.087 9.1448 33.662 9.7152 34.3428 9.7152ZM34.3428 9.3196C33.9058 9.3196 33.5424 8.9332 33.5424 8.4686C33.5424 8.0086 33.9058 7.6222 34.3428 7.6222C34.7706 7.6222 35.134 8.0086 35.134 8.4686C35.134 8.9332 34.7706 9.3196 34.3428 9.3196Z" fill="white"/>
<path d="M37.1205 7.2266C36.8583 7.2266 36.5593 7.2956 36.2189 7.4658L36.3845 7.8016C36.5915 7.6958 36.8215 7.6038 37.0561 7.6038C37.5299 7.6038 37.6679 7.9212 37.6679 8.2202V8.2938C37.4379 8.2156 37.1849 8.165 36.9503 8.165C36.4259 8.165 35.9981 8.4824 35.9981 8.9562C35.9981 9.4208 36.3707 9.7152 36.8767 9.7152C37.1665 9.7152 37.4931 9.5818 37.6679 9.3334V9.66H38.1141V8.2202C38.1141 7.6314 37.7599 7.2266 37.1205 7.2266ZM36.9641 9.3564C36.6651 9.3564 36.4351 9.2 36.4351 8.9424C36.4351 8.6848 36.7019 8.5054 37.0193 8.5054C37.2539 8.5054 37.4747 8.5376 37.6679 8.5974V8.9148C37.5897 9.2092 37.2585 9.3564 36.9641 9.3564Z" fill="white"/>
<path d="M40.6035 6.4446V7.6912C40.4195 7.4014 40.1251 7.2266 39.7571 7.2266C39.1315 7.2266 38.6623 7.7418 38.6623 8.4686C38.6623 9.2 39.1315 9.7152 39.7571 9.7152C40.1251 9.7152 40.4195 9.5404 40.6035 9.246V9.66H41.0543V6.4446H40.6035ZM39.8674 9.3196C39.4304 9.3196 39.1223 8.9654 39.1223 8.4686C39.1223 7.9718 39.4304 7.6222 39.8674 7.6222C40.2952 7.6222 40.6035 7.9718 40.6035 8.4686C40.6035 8.9654 40.2952 9.3196 39.8674 9.3196Z" fill="white"/>
<path d="M44.1807 9.7152C44.8569 9.7152 45.4273 9.1448 45.4273 8.4686C45.4273 7.7924 44.8569 7.2266 44.1807 7.2266C43.4999 7.2266 42.9249 7.7924 42.9249 8.4686C42.9249 9.1448 43.4999 9.7152 44.1807 9.7152ZM44.1807 9.3196C43.7437 9.3196 43.3803 8.9332 43.3803 8.4686C43.3803 8.0086 43.7437 7.6222 44.1807 7.6222C44.6085 7.6222 44.9719 8.0086 44.9719 8.4686C44.9719 8.9332 44.6085 9.3196 44.1807 9.3196Z" fill="white"/>
<path d="M47.1699 7.2266C46.8479 7.2266 46.5581 7.3922 46.4155 7.6268V7.2818H45.9601V9.66H46.4155V8.119C46.4523 7.8384 46.7376 7.6222 47.0688 7.6222C47.3908 7.6222 47.6161 7.8706 47.6161 8.2248V9.66H48.0624V8.1466C48.0624 7.6084 47.6943 7.2266 47.1699 7.2266Z" fill="white"/>
<path d="M51.1433 9.2322C51.0927 9.2828 51.0007 9.3196 50.8995 9.3196C50.7661 9.3196 50.6557 9.2 50.6557 9.0344V7.6682H51.2169V7.2818H50.6557V6.6286H50.2095V7.2818H49.8507V7.6682H50.2095V9.0666C50.2095 9.4484 50.4671 9.7152 50.8351 9.7152C51.0053 9.7152 51.1801 9.6508 51.3089 9.545L51.1433 9.2322Z" fill="white"/>
<path d="M52.9828 7.2266C52.6562 7.2266 52.3664 7.3968 52.2238 7.636V6.4446H51.773V9.66H52.2238V8.1834C52.2238 7.8752 52.5228 7.6222 52.8816 7.6222C53.2036 7.6222 53.429 7.8706 53.429 8.2248V9.66H53.8752V8.1466C53.8752 7.6084 53.5072 7.2266 52.9828 7.2266Z" fill="white"/>
<path d="M55.6169 9.3104C55.2075 9.3104 54.9178 9.0252 54.858 8.6296H56.7302C56.7302 7.7786 56.3115 7.2266 55.5847 7.2266C54.9269 7.2266 54.398 7.751 54.398 8.464C54.398 9.1954 54.9592 9.7152 55.6216 9.7152C55.9574 9.7152 56.3714 9.5726 56.583 9.3472L56.2978 9.0528C56.1552 9.2 55.8653 9.3104 55.6169 9.3104ZM55.6031 7.6314C56.0125 7.6314 56.238 7.8982 56.2886 8.2662H54.8625C54.9361 7.8798 55.2351 7.6314 55.6031 7.6314Z" fill="white"/>
<path d="M22.5437 15.64H23.6127L21.8095 11.2157H20.7469L18.9437 15.64H20.0063L20.2897 14.9445H22.2603L22.5437 15.64ZM20.6181 14.1395L21.275 12.523L21.9319 14.1395H20.6181Z" fill="white"/>
<path d="M26.1628 12.2332C25.6991 12.2332 25.3127 12.4329 25.0487 12.7742V12.3105H24.1085V16.7477H25.0487V15.1699C25.3127 15.5176 25.6991 15.7173 26.1628 15.7173C27.0515 15.7173 27.6955 14.996 27.6955 13.972C27.6955 12.9545 27.0515 12.2332 26.1628 12.2332ZM25.8923 14.9252C25.4351 14.9252 25.1002 14.5903 25.0487 14.1008V13.8432C25.1002 13.3602 25.4351 13.0254 25.8923 13.0254C26.414 13.0254 26.7811 13.4182 26.7811 13.972C26.7811 14.5323 26.414 14.9252 25.8923 14.9252Z" fill="white"/>
<path d="M30.4142 12.2332C29.9505 12.2332 29.5641 12.4329 29.3001 12.7742V12.3105H28.3599V16.7477H29.3001V15.1699C29.5641 15.5176 29.9505 15.7173 30.4142 15.7173C31.3029 15.7173 31.9469 14.996 31.9469 13.972C31.9469 12.9545 31.3029 12.2332 30.4142 12.2332ZM30.1437 14.9252C29.6865 14.9252 29.3516 14.5903 29.3001 14.1008V13.8432C29.3516 13.3602 29.6865 13.0254 30.1437 13.0254C30.6654 13.0254 31.0325 13.4182 31.0325 13.972C31.0325 14.5323 30.6654 14.9252 30.1437 14.9252Z" fill="white"/>
<path d="M36.1101 15.7173C37.192 15.7173 37.8296 15.157 37.8296 14.3134C37.8296 13.4955 37.1985 13.2121 36.2453 12.9996C35.5627 12.845 35.2987 12.742 35.2987 12.42C35.2987 12.156 35.5434 11.9434 35.9491 11.9434C36.3741 11.9434 36.8185 12.1173 37.2113 12.4329L37.7072 11.7502C37.2564 11.3638 36.6961 11.1384 35.9749 11.1384C35.0089 11.1384 34.3391 11.6987 34.3391 12.5166C34.3391 13.3731 35.0024 13.6372 35.9362 13.8497C36.6124 14.0042 36.87 14.1008 36.87 14.4164C36.87 14.6933 36.6253 14.9123 36.1487 14.9123C35.5885 14.9123 35.1119 14.6933 34.6933 14.3327L34.1459 14.9831C34.6611 15.4597 35.3437 15.7173 36.1101 15.7173Z" fill="white"/>
<path d="M40.2369 14.8157C40.1725 14.8801 40.0437 14.9252 39.9149 14.9252C39.741 14.9252 39.5994 14.7706 39.5994 14.5516V13.0704H40.3206V12.3105H39.5994V11.396H38.6978V12.3105H38.2405V13.0704H38.6978V14.6998C38.6978 15.2987 39.1099 15.7173 39.696 15.7173C39.9665 15.7173 40.2691 15.6014 40.4623 15.4275L40.2369 14.8157Z" fill="white"/>
<path d="M42.6869 15.7173C43.6723 15.7173 44.4966 14.9187 44.4966 13.972C44.4966 13.0254 43.6723 12.2332 42.6869 12.2332C41.6952 12.2332 40.8644 13.0254 40.8644 13.972C40.8644 14.9187 41.6952 15.7173 42.6869 15.7173ZM42.6869 14.9252C42.1846 14.9252 41.766 14.4872 41.766 13.972C41.766 13.4568 42.1846 13.0254 42.6869 13.0254C43.1828 13.0254 43.6014 13.4568 43.6014 13.972C43.6014 14.4872 43.1828 14.9252 42.6869 14.9252Z" fill="white"/>
<path d="M46.073 12.9288V12.3105H45.1328V15.64H46.073V14.0493C46.073 13.4246 46.5174 13.0254 47.2129 13.0254V12.2332C46.7041 12.2332 46.292 12.4973 46.073 12.9288Z" fill="white"/>
<path d="M49.3267 14.8865C48.9338 14.8865 48.644 14.6418 48.5346 14.2812H50.9367C50.9367 13.0254 50.3249 12.2332 49.2816 12.2332C48.3092 12.2332 47.5686 12.961 47.5686 13.9656C47.5686 14.9896 48.3414 15.7173 49.3331 15.7173C49.8226 15.7173 50.3957 15.5112 50.692 15.2021L50.093 14.5903C49.9127 14.7642 49.5907 14.8865 49.3267 14.8865ZM49.3202 13.064C49.7002 13.064 49.9449 13.2765 50.0351 13.605H48.5474C48.6698 13.2701 48.966 13.064 49.3202 13.064Z" fill="white"/>
</svg>
