<svg width="65" height="23" viewBox="0 0 65 23" fill="none" xmlns="http://www.w3.org/2000/svg">
<rect width="64.4" height="23" rx="3" fill="black" fill-opacity="0.1"/>
<path d="M21.5832 8.3628H22.4296V9.0252C22.2134 9.1908 21.9144 9.2874 21.6476 9.2874C21.0128 9.2874 20.4792 8.7354 20.4792 8.0776C20.4792 7.4244 21.0128 6.8724 21.6476 6.8724C21.9742 6.8724 22.3468 7.0196 22.563 7.2542L22.8896 6.9414C22.5906 6.6332 22.0938 6.4446 21.6476 6.4446C20.7598 6.4446 20.0008 7.1898 20.0008 8.0776C20.0008 8.9654 20.7598 9.7152 21.6476 9.7152C22.0938 9.7152 22.5906 9.522 22.8896 9.2184V7.958H21.5832V8.3628Z" fill="white"/>
<path d="M24.6244 9.3104C24.215 9.3104 23.9252 9.0252 23.8654 8.6296H25.7376C25.7376 7.7786 25.319 7.2266 24.5922 7.2266C23.9344 7.2266 23.4054 7.751 23.4054 8.464C23.4054 9.1954 23.9666 9.7152 24.629 9.7152C24.9648 9.7152 25.3788 9.5726 25.5904 9.3472L25.3052 9.0528C25.1626 9.2 24.8728 9.3104 24.6244 9.3104ZM24.6106 7.6314C25.02 7.6314 25.2454 7.8982 25.296 8.2662H23.87C23.9436 7.8798 24.2426 7.6314 24.6106 7.6314Z" fill="white"/>
<path d="M27.3787 9.2322C27.3281 9.2828 27.2361 9.3196 27.1349 9.3196C27.0015 9.3196 26.8911 9.2 26.8911 9.0344V7.6682H27.4523V7.2818H26.8911V6.6286H26.4449V7.2818H26.0861V7.6682H26.4449V9.0666C26.4449 9.4484 26.7025 9.7152 27.0705 9.7152C27.2407 9.7152 27.4155 9.6508 27.5443 9.545L27.3787 9.2322Z" fill="white"/>
<path d="M29.5501 6.8862C29.6973 6.8862 29.8215 6.7574 29.8215 6.6102C29.8215 6.4676 29.6973 6.3388 29.5501 6.3388C29.3937 6.3388 29.2741 6.4676 29.2741 6.6102C29.2741 6.7574 29.3937 6.8862 29.5501 6.8862ZM29.3201 9.66H29.7755V7.2818H29.3201V9.66Z" fill="white"/>
<path d="M31.5474 9.2322C31.4968 9.2828 31.4048 9.3196 31.3036 9.3196C31.1702 9.3196 31.0598 9.2 31.0598 9.0344V7.6682H31.621V7.2818H31.0598V6.6286H30.6136V7.2818H30.2548V7.6682H30.6136V9.0666C30.6136 9.4484 30.8712 9.7152 31.2392 9.7152C31.4094 9.7152 31.5842 9.6508 31.713 9.545L31.5474 9.2322Z" fill="white"/>
<path d="M35.0252 9.7152C35.913 9.7152 36.6582 8.9654 36.6582 8.0776C36.6582 7.1898 35.913 6.4446 35.0252 6.4446C34.1374 6.4446 33.383 7.1898 33.383 8.0776C33.383 8.9654 34.1374 9.7152 35.0252 9.7152ZM35.0252 9.2874C34.395 9.2874 33.8614 8.7354 33.8614 8.0776C33.8614 7.4244 34.395 6.8724 35.0252 6.8724C35.6554 6.8724 36.1844 7.4244 36.1844 8.0776C36.1844 8.7354 35.6554 9.2874 35.0252 9.2874Z" fill="white"/>
<path d="M38.4228 7.2266C38.1008 7.2266 37.811 7.3922 37.6684 7.6268V7.2818H37.213V9.66H37.6684V8.119C37.7052 7.8384 37.9904 7.6222 38.3216 7.6222C38.6436 7.6222 38.869 7.8706 38.869 8.2248V9.66H39.3152V8.1466C39.3152 7.6084 38.9472 7.2266 38.4228 7.2266Z" fill="white"/>
<path d="M22.2465 13.8948H23.2769V14.571C23.0258 14.7513 22.7166 14.8543 22.414 14.8543C21.6605 14.8543 21.0229 14.1974 21.0229 13.4246C21.0229 12.6583 21.6605 12.0014 22.414 12.0014C22.8197 12.0014 23.2512 12.1946 23.5152 12.4973L24.2043 11.879C23.7599 11.4154 23.0773 11.1384 22.414 11.1384C21.1324 11.1384 20.044 12.1817 20.044 13.4246C20.044 14.6676 21.1324 15.7173 22.414 15.7173C23.0773 15.7173 23.7599 15.4404 24.2043 14.9767V13.1542H22.2465V13.8948Z" fill="white"/>
<path d="M26.6139 15.7173C27.5992 15.7173 28.4235 14.9187 28.4235 13.972C28.4235 13.0254 27.5992 12.2332 26.6139 12.2332C25.6221 12.2332 24.7914 13.0254 24.7914 13.972C24.7914 14.9187 25.6221 15.7173 26.6139 15.7173ZM26.6139 14.9252C26.1116 14.9252 25.693 14.4872 25.693 13.972C25.693 13.4568 26.1116 13.0254 26.6139 13.0254C27.1098 13.0254 27.5284 13.4568 27.5284 13.972C27.5284 14.4872 27.1098 14.9252 26.6139 14.9252Z" fill="white"/>
<path d="M30.6955 15.7173C31.6808 15.7173 32.5051 14.9187 32.5051 13.972C32.5051 13.0254 31.6808 12.2332 30.6955 12.2332C29.7037 12.2332 28.873 13.0254 28.873 13.972C28.873 14.9187 29.7037 15.7173 30.6955 15.7173ZM30.6955 14.9252C30.1932 14.9252 29.7746 14.4872 29.7746 13.972C29.7746 13.4568 30.1932 13.0254 30.6955 13.0254C31.1914 13.0254 31.61 13.4568 31.61 13.972C31.61 14.4872 31.1914 14.9252 30.6955 14.9252Z" fill="white"/>
<path d="M35.5499 12.3105V12.7613C35.3245 12.4458 34.8995 12.2332 34.4487 12.2332C33.6115 12.2332 32.9739 12.8837 32.9739 13.811C32.9739 14.7384 33.6115 15.3953 34.4487 15.3953C34.8866 15.3953 35.2859 15.2021 35.5499 14.8801V15.2472C35.5499 15.6786 35.1635 15.9556 34.5581 15.9556C34.1717 15.9556 33.7853 15.8332 33.5664 15.64L33.2379 16.3033C33.5664 16.5609 34.1202 16.7477 34.7063 16.7477C35.756 16.7477 36.4966 16.1423 36.4966 15.2858V12.3105H35.5499ZM34.7449 14.6032C34.2748 14.6032 33.9399 14.2747 33.9399 13.811C33.9399 13.3474 34.2748 13.0254 34.7449 13.0254C35.215 13.0254 35.5499 13.3474 35.5499 13.811C35.5499 14.2747 35.215 14.6032 34.7449 14.6032Z" fill="white"/>
<path d="M37.3236 15.64H38.2638V11.1384H37.3236V15.64Z" fill="white"/>
<path d="M40.6559 14.8865C40.263 14.8865 39.9732 14.6418 39.8637 14.2812H42.2659C42.2659 13.0254 41.6541 12.2332 40.6108 12.2332C39.6383 12.2332 38.8977 12.961 38.8977 13.9656C38.8977 14.9896 39.6705 15.7173 40.6623 15.7173C41.1517 15.7173 41.7249 15.5112 42.0211 15.2021L41.4222 14.5903C41.2419 14.7642 40.9199 14.8865 40.6559 14.8865ZM40.6494 13.064C41.0294 13.064 41.2741 13.2765 41.3643 13.605H39.8766C39.999 13.2701 40.2952 13.064 40.6494 13.064Z" fill="white"/>
<path d="M44.7264 15.64H45.6731V14.2039H46.7164C47.6759 14.2039 48.3843 13.5856 48.3843 12.7098C48.3843 11.834 47.6759 11.2157 46.7164 11.2157H44.7264V15.64ZM45.6731 13.3345V12.0851H46.6133C47.0834 12.0851 47.4054 12.3298 47.4054 12.7098C47.4054 13.0898 47.0834 13.3345 46.6133 13.3345H45.6731Z" fill="white"/>
<path d="M48.952 15.64H49.8923V11.1384H48.952V15.64Z" fill="white"/>
<path d="M52.2006 12.2332C51.7369 12.2332 51.2797 12.362 50.8096 12.6003L51.1251 13.225C51.3892 13.0898 51.679 12.9867 51.9881 12.9867C52.5355 12.9867 52.7545 13.2958 52.7545 13.65V13.7144C52.4711 13.605 52.1749 13.547 51.9044 13.547C51.1316 13.547 50.5198 13.9978 50.5198 14.6547C50.5198 15.2922 51.0672 15.7173 51.7756 15.7173C52.1362 15.7173 52.5162 15.5756 52.7545 15.3051V15.64H53.6625V13.65C53.6625 12.7806 53.07 12.2332 52.2006 12.2332ZM51.9881 15.0668C51.6661 15.0668 51.4278 14.8994 51.4278 14.6289C51.4278 14.3584 51.6983 14.1588 52.0396 14.1588C52.2972 14.1588 52.5419 14.2039 52.7545 14.2812V14.5903C52.6901 14.8994 52.3487 15.0668 51.9881 15.0668Z" fill="white"/>
<path d="M55.2149 16.7992C55.7365 16.7992 56.1616 16.4579 56.4127 15.8074L57.778 12.3105H56.8184L55.9877 14.6482L55.1118 12.3105H54.1394L55.524 15.6722L55.4081 15.9169C55.3372 16.0393 55.1956 16.0972 55.0152 16.0972C54.9058 16.0972 54.7383 16.0393 54.5773 15.9491L54.3777 16.5931C54.6031 16.7155 54.938 16.7992 55.2149 16.7992Z" fill="white"/>
<g filter="url(#filter0_ii_8_208)">
<path d="M6.19298 5.70266C6.05912 5.84434 5.98 6.06422 5.98 6.34896V16.5223C5.98 16.8075 6.05912 17.0269 6.19298 17.1686L6.22702 17.2017L11.926 11.5028V11.4356V11.3685L6.22702 5.66908L6.19298 5.70266Z" fill="url(#paint0_linear_8_208)"/>
<path d="M13.8253 13.4031L11.926 11.5028V11.4356V11.3685L13.8258 9.46867L13.8685 9.49305L16.1193 10.7719C16.7619 11.1371 16.7619 11.7346 16.1193 12.1003L13.8685 13.3791L13.8253 13.4031Z" fill="url(#paint1_linear_8_208)"/>
<g filter="url(#filter1_i_8_208)">
<path d="M13.8686 13.3787L11.9255 11.4356L6.19299 17.1686C6.40459 17.3931 6.75465 17.4207 7.14887 17.1971L13.8686 13.3787Z" fill="url(#paint2_linear_8_208)"/>
</g>
<path d="M13.8686 9.49259L7.14887 5.67459C6.75465 5.45057 6.40459 5.47863 6.19299 5.70311L11.926 11.4361L13.8686 9.49259Z" fill="url(#paint3_linear_8_208)"/>
</g>
<defs>
<filter id="filter0_ii_8_208" x="5.98" y="5.52" width="10.6213" height="11.8316" filterUnits="userSpaceOnUse" color-interpolation-filters="sRGB">
<feFlood flood-opacity="0" result="BackgroundImageFix"/>
<feBlend mode="normal" in="SourceGraphic" in2="BackgroundImageFix" result="shape"/>
<feColorMatrix in="SourceAlpha" type="matrix" values="0 0 0 0 0 0 0 0 0 0 0 0 0 0 0 0 0 0 127 0" result="hardAlpha"/>
<feOffset dy="-0.15"/>
<feComposite in2="hardAlpha" operator="arithmetic" k2="-1" k3="1"/>
<feColorMatrix type="matrix" values="0 0 0 0 0 0 0 0 0 0 0 0 0 0 0 0 0 0 0.12 0"/>
<feBlend mode="normal" in2="shape" result="effect1_innerShadow_8_208"/>
<feColorMatrix in="SourceAlpha" type="matrix" values="0 0 0 0 0 0 0 0 0 0 0 0 0 0 0 0 0 0 127 0" result="hardAlpha"/>
<feOffset dy="0.15"/>
<feComposite in2="hardAlpha" operator="arithmetic" k2="-1" k3="1"/>
<feColorMatrix type="matrix" values="0 0 0 0 1 0 0 0 0 1 0 0 0 0 1 0 0 0 0.25 0"/>
<feBlend mode="normal" in2="effect1_innerShadow_8_208" result="effect2_innerShadow_8_208"/>
</filter>
<filter id="filter1_i_8_208" x="6.19299" y="11.4356" width="7.67557" height="5.91592" filterUnits="userSpaceOnUse" color-interpolation-filters="sRGB">
<feFlood flood-opacity="0" result="BackgroundImageFix"/>
<feBlend mode="normal" in="SourceGraphic" in2="BackgroundImageFix" result="shape"/>
<feColorMatrix in="SourceAlpha" type="matrix" values="0 0 0 0 0 0 0 0 0 0 0 0 0 0 0 0 0 0 127 0" result="hardAlpha"/>
<feOffset dy="-0.15"/>
<feComposite in2="hardAlpha" operator="arithmetic" k2="-1" k3="1"/>
<feColorMatrix type="matrix" values="0 0 0 0 0 0 0 0 0 0 0 0 0 0 0 0 0 0 0.08 0"/>
<feBlend mode="normal" in2="shape" result="effect1_innerShadow_8_208"/>
</filter>
<linearGradient id="paint0_linear_8_208" x1="11.4208" y1="6.24131" x2="3.70106" y2="13.961" gradientUnits="userSpaceOnUse">
<stop stop-color="#00A0FF"/>
<stop offset="0.0066" stop-color="#00A1FF"/>
<stop offset="0.2601" stop-color="#00BEFF"/>
<stop offset="0.5122" stop-color="#00D2FF"/>
<stop offset="0.7604" stop-color="#00DFFF"/>
<stop offset="1" stop-color="#00E3FF"/>
</linearGradient>
<linearGradient id="paint1_linear_8_208" x1="16.9558" y1="11.4356" x2="5.82572" y2="11.4356" gradientUnits="userSpaceOnUse">
<stop stop-color="#FFE000"/>
<stop offset="0.4087" stop-color="#FFBD00"/>
<stop offset="0.7754" stop-color="#FFA500"/>
<stop offset="1" stop-color="#FF9C00"/>
</linearGradient>
<linearGradient id="paint2_linear_8_208" x1="12.8134" y1="12.4908" x2="2.34445" y2="22.9597" gradientUnits="userSpaceOnUse">
<stop stop-color="#FF3A44"/>
<stop offset="1" stop-color="#C31162"/>
</linearGradient>
<linearGradient id="paint3_linear_8_208" x1="4.74924" y1="2.3165" x2="9.4239" y2="6.99116" gradientUnits="userSpaceOnUse">
<stop stop-color="#32A071"/>
<stop offset="0.0685" stop-color="#2DA771"/>
<stop offset="0.4762" stop-color="#15CF74"/>
<stop offset="0.8009" stop-color="#06E775"/>
<stop offset="1" stop-color="#00F076"/>
</linearGradient>
</defs>
</svg>
